<svg xmlns="http://www.w3.org/2000/svg" xmlns:xlink="http://www.w3.org/1999/xlink" aria-hidden="true" role="img" class="iconify iconify--logos" width="31.88" height="32" preserveAspectRatio="xMidYMid meet" viewBox="0 0 256 257"><path fill="#FFD43B" d="M210.483 134.409c0 12.467-1.733 24.341-4.8 34.921c-12.374 42.016-52.181 72.384-98.317 72.384c-46.136 0-85.943-30.368-98.317-72.384c-3.067-10.58-4.8-22.454-4.8-34.921s1.733-24.341 4.8-34.921C21.643 57.472 61.45 27.104 107.586 27.104c46.136 0 85.943 30.368 98.317 72.384c3.067 10.58 4.8 22.454 4.8 34.921Z"></path><path fill="#61DAFB" d="M212.23 119.488c-1.387-4.267-3.2-8.533-5.333-12.8c-10.24-20.48-25.173-36.693-42.667-46.507c-16.64-9.387-35.84-14.08-55.467-14.08c-19.627 0-38.827 4.693-55.467 14.08c-17.494 9.814-32.427 26.027-42.667 46.507c-2.133 4.267-3.946 8.533-5.333 12.8c-.96 2.987-1.707 6.08-2.347 9.173c.64-3.094 1.387-6.187 2.347-9.174c1.387-4.266 3.2-8.533 5.333-12.8c10.24-20.48 25.173-36.693 42.667-46.506c16.64-9.387 35.84-14.08 55.467-14.08c19.627 0 38.827 4.694 55.467 14.08c17.494 9.813 32.427 26.026 42.667 46.506c2.133 4.267 3.946 8.533 5.333 12.8c.96 2.986 1.707 6.08 2.347 9.173c-.64-3.094-1.387-6.187-2.347-9.173Z"></path></svg>
